<svg version="1.2" xmlns="http://www.w3.org/2000/svg" viewBox="0 0 1462 61" width="1462" height="61"><style>.a{fill:#255da8}.b{fill:#221c69}</style><path class="a" d="m-0.5 67c-1-2.5-2.4-4.7-2.5-6.9-0.3-9.7 3.3-45.8 3.5-55.5 0-0.7 0.9-1.4 2.2-2.1 2.6-1.4 12.2-2.1 24.9-2.3 43.3-0.5 86.5-1 130.1-1.1 27.8-0.1 53.3 0.8 81 0.5 36.9-0.5 73.7-0.3 110 0.2 2.9 0.1 5.9 0.1 8.9 0 47.1-0.1 94.9-0.7 141.2-0.3 54.3 0.5 107.4-1.2 161.3-0.9 26.7 0.2 53.8-0.7 80.7-1.4 31.7-0.7 64.7-0.9 97-1 19.6 0 39.1 0.4 58.4 0.8 35.4 0.6 70.6-0.1 105.7-0.7 19.6-0.3 38.9-0.9 58.6-1.3 15.2-0.3 30.2-0.3 45.7 0.1 12.7 0.4 28.2 0.4 41.2 0.1 24-0.6 47.5-0.3 69.8 0 19.8 0.3 39.4 0.1 59 0.2 27.7 0.2 55.7 0.2 83.6 0.3 33.7 0 67.4-0.1 103.7-0.1 2.2 13.1 1.9 51.5-1.8 64.9-53.1 0.6-67.8 1.1-100.6 1.1-5.1 0-10.2 0.1-15.3 0.2-3.6 0.1-7.2 0.3-10.8 0.3-40.4 0.1-81.1 0.8-120-0.7-19.4-0.7-39.1 0.1-58.3 0.7-7.5 0.3-15.6 0.4-23.4 0.5-18.7 0.1-37.4 0.2-56 0.2-14.6 0-29.1-0.2-43.5-0.3-13.7-0.2-27.3-0.5-41-0.7-2.8 0-6 0-8.7 0.1-17 0.4-33.8 0.9-50.8 1.4-4.2 0.1-8.7 0.2-13.1 0.2-28-0.1-56-0.1-84-0.1-34.6 0.1-69.2 0.2-103.8 0.4-5.7 0-11.5 0.3-17.3 0.4-28.5 0.7-57 0.7-85.6 0.5-11.7-0.1-23.8-0.3-35.3-0.1-33.7 0.7-66.3 0.5-98.3-0.4-12.1-0.3-22-0.1-33.4 0.6-21.3 1.4-45.8 1.2-69.2 1-35.2-0.2-70.3-0.5-105.4-0.8-0.7 0-1.6 0-2.2 0-21.1 0.8-43 0.8-64.8 1.1-18.2 0.2-36.4 0.9-54.5 0.9-54.5 0.1-108.9 0-166.9 0z"/><path class="b" d="m168.3 19.9c18-0.1 36.2 0.2 54.5 0.2 21.7 0 43.6-0.1 64.7 0.3 0.6 0 1.5 0 2.2 0 35.1-0.5 70.2-1 105.5-1.4 23.4-0.3 47.9-0.6 69.1 0.2 11.4 0.5 21.2 0.5 33.4 0.2 32-0.9 64.7-1.3 98.4-1.1 11.4 0.1 23.5-0.1 35.3-0.3 28.6-0.3 57.1-0.5 85.5-0.3 5.8 0.1 11.6 0.2 17.3 0.2 34.6-0.2 69.2-0.3 103.8-0.5 28-0.2 56-0.5 84.1-0.7 4.3 0 8.8 0 13.1 0 16.9 0.2 33.7 0.5 50.6 0.7 2.8 0 6-0.1 8.8-0.1 13.7-0.2 27.3-0.5 41.1-0.8 14.4-0.2 28.9-0.4 43.4-0.5 18.6-0.2 37.4-0.2 56-0.3 7.9 0 15.9 0 23.4 0.2 19.2 0.3 38.8 0.7 58.3 0 39-1.3 79.7-1.2 120.1-1.4 3.6 0 7.2 0.1 10.8 0.1 5.1 0.1 10.2 0.1 15.2 0.1 32.9-0.3 47.5 0 100.6 0 3 9.5 1 36.9-1.8 46.2-36.4 0.3-70.1 0.5-103.8 0.8-27.9 0.2-55.9 0.4-83.6 0.8-19.6 0.2-39.2 0.2-59 0.6-22.4 0.4-45.8 0.8-69.9 0.5-13-0.1-28.4 0-41.1 0.4-15.5 0.4-30.6 0.5-45.8 0.4-19.6-0.1-38.9-0.4-58.5-0.4-35.1-0.2-70.2-0.5-105.7 0.3-19.3 0.4-38.9 0.9-58.4 1-32.4 0.1-65.4 0.2-97 0-26.9-0.3-54-0.7-80.6-0.4-54 0.6-107-0.2-161.3 0.6-46.4 0.6-94.2 0.6-141.3 0.8-3 0-6 0-8.9 0.1-36.4 0.6-73.1 1-110.1 1-27.6 0-53.2 0.9-80.9 1-43.7 0.2-86.9 0.2-130.2 0.1-12.6 0-22.2-0.5-24.7-1.4-1.3-0.5-2.2-1-2.1-1.5 0.4-6.9-1.2-32.6-0.3-39.5 0.1-1.6 1.7-3.1 2.8-4.9 58-0.5 112.5-1 167-1.3z"/></svg>